<svg xmlns="http://www.w3.org/2000/svg" xmlns:xlink="http://www.w3.org/1999/xlink" fill="none" version="1.1" width="450" height="450" viewBox="0 0 450 450"><defs><filter id="master_svg_1" filterUnits="userSpaceOnUse" color-interpolation-filters="sRGB" x="-92.71700286865234" y="17.69892743823584" width="600.1226912234488" height="600.4562488944539"><feFlood flood-opacity="0" result="BackgroundImageFix"/><feColorMatrix in="SourceAlpha" type="matrix" values="0 0 0 0 0 0 0 0 0 0 0 0 0 0 0 0 0 0 127 0"/><feOffset dy="29" dx="1"/><feGaussianBlur stdDeviation="9"/><feColorMatrix type="matrix" values="0 0 0 0 0 0 0 0 0 0 0 0 0 0 0 0 0 0 0.4000000059604645 0"/><feBlend mode="normal" in2="BackgroundImageFix" result="effect1_dropShadow"/><feBlend mode="normal" in="SourceGraphic" in2="effect1_dropShadow" result="shape"/></filter><filter id="master_svg_2" filterUnits="userSpaceOnUse" color-interpolation-filters="sRGB" x="-39" y="17.88313153979834" width="600.1226912234488" height="600.4562488944539"><feFlood flood-opacity="0" result="BackgroundImageFix"/><feColorMatrix in="SourceAlpha" type="matrix" values="0 0 0 0 0 0 0 0 0 0 0 0 0 0 0 0 0 0 127 0"/><feOffset dy="29" dx="1"/><feGaussianBlur stdDeviation="9"/><feColorMatrix type="matrix" values="0 0 0 0 0 0 0 0 0 0 0 0 0 0 0 0 0 0 0.20000000298023224 0"/><feBlend mode="normal" in2="BackgroundImageFix" result="effect1_dropShadow"/><feBlend mode="normal" in="SourceGraphic" in2="effect1_dropShadow" result="shape"/></filter></defs><clipPath id="master_svg_0"><rect x="0" y="0" width="450" height="450" rx="0"/></clipPath><g clip-path="url(#master_svg_0)"><g><g filter="url(#master_svg_1)"><path d="M-68.17711286865234,428.92401513671877C-78.24586286865234,432.28001513671876,-78.15211286865234,437.5490151367187,-68.36461286865234,440.81101513671877Q58.05099713134766,502.79501513671875,73.22999713134766,508.3320151367187C88.40899713134766,513.8680151367188,101.79199713134764,527.3180151367187,107.97499713134766,542.1700151367188Q114.15899713134766,557.0210151367187,184.55699713134766,687.1290151367187C188.75699713134765,696.5410151367187,193.50899713134766,696.4340151367187,196.32199713134764,686.5150151367188L303.34899713134763,322.92451513671875C304.73599713134763,318.06831513671875,303.18999713134764,312.92708513671874,300.87699713134765,310.73801513671873C298.56399713134766,308.54895613671874,293.26399713134765,306.62311513671875,288.30399713134767,308.2731161367187L-68.17711286865234,428.92401513671877Z" transform="matrix(0.7163988351821899,-0.6976909637451172,0.6976909637451172,0.7163988351821899,-236.1201588398917,34.42368474916293)" fill="#D8D8D8" fill-opacity="1"/></g><g filter="url(#master_svg_2)"><path d="M-14.46011,429.10821923828127C-24.52886,432.46421923828126,-24.43511,437.7332192382812,-14.64761,440.99521923828127Q111.768,502.97921923828125,126.947,508.5162192382812C142.126,514.0522192382813,155.509,527.5022192382812,161.692,542.3542192382813Q167.876,557.2052192382812,238.274,687.3132192382812C242.474,696.7252192382812,247.226,696.6182192382812,250.039,686.6992192382813L357.066,323.10871923828125C358.453,318.25251923828125,356.907,313.11128923828124,354.594,310.92221923828123C352.281,308.73316023828124,346.981,306.80731923828125,342.021,308.4573202382812L-14.46011,429.10821923828127Z" transform="matrix(0.7163988351821899,-0.6976909637451172,0.6976909637451172,0.7163988351821899,-221.0144717929652,71.95379274785955)" fill="#D8D8D8" fill-opacity="0.699999988079071"/></g></g></g></svg>